HIERARCHY
ROOT hips
{
  OFFSET 0 10.6860622 2.3727825e-15
  CHANNELS 6 Xposition Yposition Zposition Yrotation Xrotation Zrotation
  JOINT leftUpperLeg
  {
    OFFSET 0.6642549969 -0.9402397400000004 0
    CHANNELS 3 Yrotation Xrotation Zrotation
    JOINT leftLowerLeg
    {
      OFFSET 0 -3.997221335632195 0
      CHANNELS 3 Yrotation Xrotation Zrotation
      JOINT leftFoot
      {
        OFFSET -0.13777839790000004 -4.6145792000000005 -0.22186036399999998
        CHANNELS 3 Yrotation Xrotation Zrotation
        JOINT leftToes
        {
          OFFSET -0.03777410834999995 -0.9130806927000008 0.85230013
          CHANNELS 3 Yrotation Xrotation Zrotation
          End Site
          {
            OFFSET -0.03777410834999995 -0.9130806927000008 0.85230013
          }
        }
      }
    }
  }
  JOINT rightUpperLeg
  {
    OFFSET -0.6642778626 -0.9402397400000004 0
    CHANNELS 3 Yrotation Xrotation Zrotation
    JOINT rightLowerLeg
    {
      OFFSET 0 -3.997221452859387 0
      CHANNELS 3 Yrotation Xrotation Zrotation
      JOINT rightFoot
      {
        OFFSET 0.1377926176 -4.6145792000000005 -0.22185782299999995
        CHANNELS 3 Yrotation Xrotation Zrotation
        JOINT rightToes
        {
          OFFSET 0.037780746850000047 -0.9130806927000008 0.85230167
          CHANNELS 3 Yrotation Xrotation Zrotation
          End Site
          {
            OFFSET 0.037780746850000047 -0.9130806927000008 0.85230167
          }
        }
      }
    }
  }
  JOINT spine
  {
    OFFSET 0 0.13988381660000015 0
    CHANNELS 3 Yrotation Xrotation Zrotation
    JOINT chest
    {
      OFFSET 0 0.6191039003973773 0
      CHANNELS 3 Yrotation Xrotation Zrotation
      JOINT upperChest
      {
        OFFSET 0 0.9855186130586943 0
        CHANNELS 3 Yrotation Xrotation Zrotation
        JOINT leftShoulder
        {
          OFFSET 0.1807663869 1.5087829790000005 0
          CHANNELS 3 Yrotation Xrotation Zrotation
          JOINT leftUpperArm
          {
            OFFSET 0.5985063006419806 0 0
            CHANNELS 3 Yrotation Xrotation Zrotation
            JOINT leftLowerArm
            {
              OFFSET 2.2993332369501065 0 0
              CHANNELS 3 Yrotation Xrotation Zrotation
              JOINT leftHand
              {
                OFFSET 2.395047042602395 0 0
                CHANNELS 3 Yrotation Xrotation Zrotation
                JOINT leftIndexProximal
                {
                  OFFSET 0.5766295810000004 0.04556643899499946 0.17265095988184
                  CHANNELS 3 Yrotation Xrotation Zrotation
                  JOINT leftIndexIntermediate
                  {
                    OFFSET 0.2957229000000008 -0.019352197700001517 -0.007932640616999987
                    CHANNELS 3 Yrotation Xrotation Zrotation
                    JOINT leftIndexDistal
                    {
                      OFFSET 0.19008243099999922 -0.012484908149998475 -0.002786250786000012
                      CHANNELS 3 Yrotation Xrotation Zrotation
                      End Site
                      {
                        OFFSET 0.19008243099999922 -0.012484908149998475 -0.002786250786000012
                      }
                    }
                  }
                }
                JOINT leftMiddleProximal
                {
                  OFFSET 0.5834975091000001 0.0524350405149987 0.02204081888183999
                  CHANNELS 3 Yrotation Xrotation Zrotation
                  JOINT leftMiddleIntermediate
                  {
                    OFFSET 0.33880573540000003 -0.019871473270000717 -0.00000971183179999946
                    CHANNELS 3 Yrotation Xrotation Zrotation
                    JOINT leftMiddleDistal
                    {
                      OFFSET 0.20676022730000088 -0.012221336379999448 0.0001471936708000235
                      CHANNELS 3 Yrotation Xrotation Zrotation
                      End Site
                      {
                        OFFSET 0.20676022730000088 -0.012221336379999448 0.0001471936708000235
                      }
                    }
                  }
                }
                JOINT leftLittleProximal
                {
                  OFFSET 0.5344154683999995 -0.012880921405001189 -0.24414037221816004
                  CHANNELS 3 Yrotation Xrotation Zrotation
                  JOINT leftLittleIntermediate
                  {
                    OFFSET 0.21758961730000093 -0.011650919939999227 0.011893592810000034
                    CHANNELS 3 Yrotation Xrotation Zrotation
                    JOINT leftLittleDistal
                    {
                      OFFSET 0.1475273964999999 -0.008152365682999818 0.006001092492999946
                      CHANNELS 3 Yrotation Xrotation Zrotation
                      End Site
                      {
                        OFFSET 0.1475273964999999 -0.008152365682999818 0.006001092492999946
                      }
                    }
                  }
                }
                JOINT leftRingProximal
                {
                  OFFSET 0.5799399463000003 0.026911854694997794 -0.12150566991816003
                  CHANNELS 3 Yrotation Xrotation Zrotation
                  JOINT leftRingIntermediate
                  {
                    OFFSET 0.26167887460000006 -0.013480186499999602 0.010996293000000053
                    CHANNELS 3 Yrotation Xrotation Zrotation
                    JOINT leftRingDistal
                    {
                      OFFSET 0.17667108799999987 -0.008990287899999228 0.0055541023999999065
                      CHANNELS 3 Yrotation Xrotation Zrotation
                      End Site
                      {
                        OFFSET 0.17667108799999987 -0.008990287899999228 0.0055541023999999065
                      }
                    }
                  }
                }
                JOINT leftThumbProximal
                {
                  OFFSET 0.11018806699999972 -0.09448718900500053 0.17047963138184
                  CHANNELS 3 Yrotation Xrotation Zrotation
                  JOINT leftThumbIntermediate
                  {
                    OFFSET 0.31062601459999983 -0.08126270900000132 0.15443142000000007
                    CHANNELS 3 Yrotation Xrotation Zrotation
                    JOINT leftThumbDistal
                    {
                      OFFSET 0.21627175790000086 -0.08833193599999878 0.018771167799999988
                      CHANNELS 3 Yrotation Xrotation Zrotation
                      End Site
                      {
                        OFFSET 0.21627175790000086 -0.08833193599999878 0.018771167799999988
                      }
                    }
                  }
                }
              }
            }
          }
        }
        JOINT neck
        {
          OFFSET 0 1.5463305265074576 0
          CHANNELS 3 Yrotation Xrotation Zrotation
          JOINT head
          {
            OFFSET 0 0.8456443600000344 0
            CHANNELS 3 Yrotation Xrotation Zrotation
            JOINT leftEye
            {
              OFFSET 0.30408573140000006 0.5104519199999995 0.1276382305
              CHANNELS 3 Yrotation Xrotation Zrotation
              End Site
              {
                OFFSET 0.30408573140000006 0.5104519199999995 0.1276382305
              }
            }
            JOINT rightEye
            {
              OFFSET -0.30409491089999996 0.5104519199999995 0.1276379445
              CHANNELS 3 Yrotation Xrotation Zrotation
              End Site
              {
                OFFSET -0.30409491089999996 0.5104519199999995 0.1276379445
              }
            }
            JOINT jaw
            {
              OFFSET -3.155239131000001e-7 -0.11984121820000082 0.60178107
              CHANNELS 3 Yrotation Xrotation Zrotation
              End Site
              {
                OFFSET -3.155239131000001e-7 -0.11984121820000082 0.60178107
              }
            }
          }
        }
        JOINT rightShoulder
        {
          OFFSET -0.1807303465 1.5087829790000005 0
          CHANNELS 3 Yrotation Xrotation Zrotation
          JOINT rightUpperArm
          {
            OFFSET -0.5985063796536958 0 0
            CHANNELS 3 Yrotation Xrotation Zrotation
            JOINT rightLowerArm
            {
              OFFSET -2.2993322059002854 0 0
              CHANNELS 3 Yrotation Xrotation Zrotation
              JOINT rightHand
              {
                OFFSET -2.395045314457259 0 0
                CHANNELS 3 Yrotation Xrotation Zrotation
                JOINT rightIndexProximal
                {
                  OFFSET -0.5764487688300002 0.0441371204405987 0.17361932004999997
                  CHANNELS 3 Yrotation Xrotation Zrotation
                  JOINT rightIndexIntermediate
                  {
                    OFFSET -0.29573011380000047 -0.01934826376999843 -0.007698921482999974
                    CHANNELS 3 Yrotation Xrotation Zrotation
                    JOINT rightIndexDistal
                    {
                      OFFSET -0.19008373999999884 -0.012503266380000655 -0.0026365778999999897
                      CHANNELS 3 Yrotation Xrotation Zrotation
                      End Site
                      {
                        OFFSET -0.19008373999999884 -0.012503266380000655 -0.0026365778999999897
                      }
                    }
                  }
                }
                JOINT rightMiddleProximal
                {
                  OFFSET -0.5834852037300005 0.05211639405060153 0.02307162440000001
                  CHANNELS 3 Yrotation Xrotation Zrotation
                  JOINT rightMiddleIntermediate
                  {
                    OFFSET -0.33880114510000003 -0.019952774050000954 0.0002455003561999819
                    CHANNELS 3 Yrotation Xrotation Zrotation
                    JOINT rightMiddleDistal
                    {
                      OFFSET -0.20675694929999955 -0.012273788999999091 0.00030209124000002766
                      CHANNELS 3 Yrotation Xrotation Zrotation
                      End Site
                      {
                        OFFSET -0.20675694929999955 -0.012273788999999091 0.00030209124000002766
                      }
                    }
                  }
                }
                JOINT rightLittleProximal
                {
                  OFFSET -0.5346811737299992 -0.011214256288399227 -0.24363941305000003
                  CHANNELS 3 Yrotation Xrotation Zrotation
                  JOINT rightLittleIntermediate
                  {
                    OFFSET -0.21757715980000092 -0.011771559690000988 0.01201554387
                    CHANNELS 3 Yrotation Xrotation Zrotation
                    JOINT rightLittleDistal
                    {
                      OFFSET -0.1475201849000004 -0.00822055339600003 0.006082065407000015
                      CHANNELS 3 Yrotation Xrotation Zrotation
                      End Site
                      {
                        OFFSET -0.1475201849000004 -0.00822055339600003 0.006082065407000015
                      }
                    }
                  }
                }
                JOINT rightRingProximal
                {
                  OFFSET -0.5800810755299999 0.027657985680600072 -0.12066365025000003
                  CHANNELS 3 Yrotation Xrotation Zrotation
                  JOINT rightRingIntermediate
                  {
                    OFFSET -0.26166445029999974 -0.013623118409999302 0.011164098990000045
                    CHANNELS 3 Yrotation Xrotation Zrotation
                    JOINT rightRingDistal
                    {
                      OFFSET -0.17666387530000027 -0.009072900100000503 0.005668185599999959
                      CHANNELS 3 Yrotation Xrotation Zrotation
                      End Site
                      {
                        OFFSET -0.17666387530000027 -0.009072900100000503 0.005668185599999959
                      }
                    }
                  }
                }
                JOINT rightThumbProximal
                {
                  OFFSET -0.10997596379000074 -0.09577489355940072 0.16989765924999997
                  CHANNELS 3 Yrotation Xrotation Zrotation
                  JOINT rightThumbIntermediate
                  {
                    OFFSET -0.31036620999999986 -0.08229339117999834 0.15440884469999996
                    CHANNELS 3 Yrotation Xrotation Zrotation
                    JOINT rightThumbDistal
                    {
                      OFFSET -0.21631306399999906 -0.08825326400000111 0.018656797720000014
                      CHANNELS 3 Yrotation Xrotation Zrotation
                      End Site
                      {
                        OFFSET -0.21631306399999906 -0.08825326400000111 0.018656797720000014
                      }
                    }
                  }
                }
              }
            }
          }
        }
      }
    }
  }
}
MOTION
Frames: 5
Frame Time: 0.03333333333333333
0 -0.1910845614790733 -0.07007856399937316 180 -87.26569505957924 180 0.24796207946344542 -2.021775179762959 13.360924037700801 0.9871220810845279 12.09525292534558 5.5140831233415275 0.4737767604204134 10.736375594823501 5.4681571675634615 0 0 0 -3.787800225147582 -16.095767203665655 -5.047358416260893 -4.57412790885012 38.83954364525298 -4.680506329560966 2.382729913536211 18.58325006132432 -7.689065619014272 0 0 0 -0.004088698217518655 19.650428439631998 0.018593142896980712 -0.5930250049677566 1.0518437535472254 -0.12503073159936898 0 0 0 -3.7980890354656123 30.404376243933918 -8.776081967113146 -32.000195328371134 -59.43793370332714 -48.84636268181438 -21.317734298281998 -31.45956192391626 -14.191979492015662 -12.987559127813412 27.72154658848671 -17.278891462487866 0 0 0 0 0 0 0 0 0 0 0 0 0 0 0 0 0 0 0 0 0 0 0 0 0 0 0 0 0 0 0 0 0 0 0 0 0 0 0 0 0 0 0 0 0 -0.0007334698126803495 -4.811521190833514 -9.002061042623167 -14.717971843115196 -2.8241137289714278 1.6538180020781683 0 0 0 0 0 0 0 0 0 -11.469914687380664 -0.5721144763186001 -22.669207650804122 -10.914835776033012 38.77135817612211 78.91302605763391 91.38162395099485 38.50252000489288 30.00539205449966 -5.013127755656409 19.949586885914872 12.242787972370525 0 0 0 0 0 0 0 0 0 0 0 0 0 0 0 0 0 0 0 0 0 0 0 0 0 0 0 0 0 0 0 0 0 0 0 0 0 0 0 0 0 0 0 0 0
0 -0.18102736628869362 -0.06639031740708506 180 -87.04017715986463 180 0.31086178872916226 -1.7881362425624865 13.361551817119523 0.9871220810845279 12.09525292534558 5.5140831233415275 0.4737767604204134 10.736375594823501 5.4681571675634615 0 0 0 -3.8478602470198 -15.825681733773637 -5.074725961911996 -4.57412790885012 38.83954364525298 -4.680506329560966 2.382729913536211 18.58325006132432 -7.689065619014272 0 0 0 -0.004246026391673443 19.87567773438754 0.01948317107367144 -0.5907062340799103 0.6566042453513304 -0.11944581950168094 0 0 0 -3.8509533677486294 30.700012665532736 -8.87828015870975 -32.000195328371134 -59.43793370332714 -48.84636268181438 -21.317734298281998 -31.45956192391626 -14.191979492015662 -12.987559127813412 27.72154658848671 -17.278891462487866 0 0 0 0 0 0 0 0 0 0 0 0 0 0 0 0 0 0 0 0 0 0 0 0 0 0 0 0 0 0 0 0 0 0 0 0 0 0 0 0 0 0 0 0 0 -0.0007425691289728704 -3.9981888260694727 -9.002058373204152 -14.793145516218498 -2.8823007414168216 1.6698245995650682 0 0 0 0 0 0 0 0 0 -11.431512133724189 -0.8794589021701865 -23.328538997955686 -11.14824494746442 39.14301501322245 78.817672094317 92.11071008101082 38.585988476330286 31.359960002823527 -5.2440518255782855 19.547819263805312 12.07503215682128 0 0 0 0 0 0 0 0 0 0 0 0 0 0 0 0 0 0 0 0 0 0 0 0 0 0 0 0 0 0 0 0 0 0 0 0 0 0 0 0 0 0 0 0 0
0 -0.1709704394905836 -0.06270180242252564 180 -86.81469436125643 180 0.37375578515978763 -1.5545034507419841 13.362434193863566 0.9871220810845279 12.09525292534558 5.5140831233415275 0.4737767604204134 10.736375594823501 5.4681571675634615 0 0 0 -3.9079731285662445 -15.555630532633641 -5.102350309245051 -4.57412790885012 38.83954364525298 -4.680506329560966 2.382729913536211 18.58325006132432 -7.689065619014272 0 0 0 -0.004399622054466304 20.10092396199641 0.02037366570580498 -0.5884252993042923 0.2613834950020235 -0.11387719060598948 0 0 0 -3.9045959552722382 30.99556162179359 -8.981110755116136 -32.000195328371134 -59.43793370332714 -48.84636268181438 -21.317734298281998 -31.45956192391626 -14.191979492015662 -12.987559127813412 27.72154658848671 -17.278891462487866 0 0 0 0 0 0 0 0 0 0 0 0 0 0 0 0 0 0 0 0 0 0 0 0 0 0 0 0 0 0 0 0 0 0 0 0 0 0 0 0 0 0 0 0 0 -0.0007508102539431151 -3.1841992099123297 -9.002054724681635 -14.868333976907513 -2.940463799866063 1.685906942539578 0 0 0 0 0 0 0 0 0 -11.389579941779061 -1.1862917129353854 -23.988030704296634 -11.383693951881726 39.514342585754086 78.7198393288863 92.84262554620388 38.655917091557264 32.71674470179425 -5.473144819250085 19.14545522943685 11.909416153071973 0 0 0 0 0 0 0 0 0 0 0 0 0 0 0 0 0 0 0 0 0 0 0 0 0 0 0 0 0 0 0 0 0 0 0 0 0 0 0 0 0 0 0 0 0
0 -0.16091324430020154 -0.05901355583023754 180 -86.58917915997232 180 0.43664561550325404 -1.320878362302661 13.363578640413449 0.9871220810845279 12.09525292534558 5.5140831233415275 0.4737767604204134 10.736375594823501 5.4681571675634615 0 0 0 -3.968140749321042 -15.285611017295729 -5.1302297770081875 -4.57412790885012 38.83954364525298 -4.680506329560966 2.382729913536211 18.58325006132432 -7.689065619014272 0 0 0 -0.004549562261714383 20.326165135187242 0.021265638030179067 -0.5861840028488087 -0.1338106111333838 -0.108325387627678 0 0 0 -3.9590204416724273 31.291010219206157 -9.084576528871452 -32.000195328371134 -59.43793370332714 -48.84636268181438 -21.317734298281998 -31.45956192391626 -14.191979492015662 -12.987559127813412 27.72154658848671 -17.278891462487866 0 0 0 0 0 0 0 0 0 0 0 0 0 0 0 0 0 0 0 0 0 0 0 0 0 0 0 0 0 0 0 0 0 0 0 0 0 0 0 0 0 0 0 0 0 -0.0007601779772044413 -2.3696307511175116 -9.002051142237113 -14.943535837930627 -2.9986023193426035 1.7020670077529738 0 0 0 0 0 0 0 0 0 -11.34412034037607 -1.4925477383980805 -24.64766951757055 -11.621215355028445 39.88533797673736 78.61949910347963 93.57672095520398 38.712244421559525 34.07506243254279 -5.700433835403371 18.742506454811256 11.745916423803289 0 0 0 0 0 0 0 0 0 0 0 0 0 0 0 0 0 0 0 0 0 0 0 0 0 0 0 0 0 0 0 0 0 0 0 0 0 0 0 0 0 0 0 0 0
0 -0.15085604910981945 -0.05532504084567814 180 -86.3637421021282 180 0.4995319655473348 -1.0872628551176766 13.364970968290402 0.9871220810845279 12.09525292534558 5.5140831233415275 0.4737767604204134 10.736375594823501 5.4681571675634615 0 0 0 -4.0283661570016935 -15.015638293830712 -5.158367953228354 -4.57412790885012 38.83954364525298 -4.680506329560966 2.382729913536211 18.58325006132432 -7.689065619014272 0 0 0 -0.004695666056922959 20.551395602515026 0.022157199028912257 -0.5839818472701939 -0.528965004442496 -0.10278891099068141 0 0 0 -4.014242383652564 31.586357390236124 -9.188694710324889 -32.000195328371134 -59.43793370332714 -48.84636268181438 -21.317734298281998 -31.45956192391626 -14.191979492015662 -12.987559127813412 27.72154658848671 -17.278891462487866 0 0 0 0 0 0 0 0 0 0 0 0 0 0 0 0 0 0 0 0 0 0 0 0 0 0 0 0 0 0 0 0 0 0 0 0 0 0 0 0 0 0 0 0 0 -0.0007687000523912333 -1.5545651585990787 -9.002048216733652 -15.018758942007961 -3.05671571459472 1.7183020805389102 0 0 0 0 0 0 0 0 0 -11.295149726371859 -1.798160825588961 -25.307435675238157 -11.860862318091504 40.25596671795794 78.51661122473773 94.31234249825111 38.75494713308645 35.434197138801224 -5.92594441770893 18.33900227313723 11.58450634890627 0 0 0 0 0 0 0 0 0 0 0 0 0 0 0 0 0 0 0 0 0 0 0 0 0 0 0 0 0 0 0 0 0 0 0 0 0 0 0 0 0 0 0 0 0
